<svg width="708" height="708" viewBox="0 0 708 708" fill="none" xmlns="http://www.w3.org/2000/svg">
<path d="M25.5692 386C12.0587 386 1.39453 397.625 3.54581 410.963C27.8093 561.398 146.602 680.191 297.037 704.454C310.375 706.605 322 695.941 322 682.431V409C322 396.297 311.703 386 299 386H25.5692Z" fill="#1E1E1E"/>
<path d="M25.5692 322C12.0587 322 1.39452 310.375 3.54581 297.037C27.8093 146.602 146.602 27.8093 297.037 3.54581C310.375 1.39453 322 12.0587 322 25.5692V299C322 311.703 311.703 322 299 322H25.5692Z" fill="#1E1E1E"/>
<path d="M682.431 322C695.941 322 706.605 310.375 704.454 297.037C680.191 146.602 561.398 27.8093 410.963 3.54581C397.625 1.39452 386 12.0587 386 25.5692V299C386 311.703 396.297 322 409 322H682.431Z" fill="#1E1E1E"/>
<path d="M685 708C697.703 708 708 697.703 708 685V411.569C708 398.059 696.375 387.395 683.037 389.546C532.602 413.809 413.809 532.602 389.546 683.037C387.395 696.375 398.059 708 411.569 708H685Z" fill="#015F99"/>
</svg>
